<svg width="750" height="1019" xmlns="http://www.w3.org/2000/svg" class="icon">
 <defs>
  <style type="text/css"/>
 </defs>
 <g>
  <title>background</title>
  <rect fill="none" id="canvas_background" height="1021" width="752" y="-1" x="-1"/>
 </g>
 <g>
  <title>Layer 1</title>
  <path fill="#999999" id="svg_1" d="m276.2,865c0,0 128,-102.4 236.8,-108.8c108.8,6.4 236.8,108.8 236.8,108.8c-6.4,-108.8 -83.2,-179.2 -83.2,-179.2c96,-364.8 -160,-684.8 -160,-684.8s-249.6,320 -147.2,684.8c0,0 -83.2,76.8 -83.2,179.2zm198.4,-672l64,0c0,0 83.2,0 83.2,192l-224,0c-6.4,-192 76.8,-192 76.8,-192zm102.4,601.6l-70.4,-12.8l-70.4,12.8c0,0 -44.8,19.2 -38.4,44.8c6.4,25.6 57.6,153.6 102.4,179.2c44.8,-19.2 96,-147.2 102.4,-179.2c19.2,-25.6 -25.6,-44.8 -25.6,-44.8z"/>
 </g>
</svg>