<?xml version="1.0" standalone="no"?><!DOCTYPE svg PUBLIC "-//W3C//DTD SVG 1.1//EN" "http://www.w3.org/Graphics/SVG/1.1/DTD/svg11.dtd"><svg t="1610441855011" class="icon" viewBox="0 0 1024 1024" version="1.1" xmlns="http://www.w3.org/2000/svg" p-id="11557" xmlns:xlink="http://www.w3.org/1999/xlink" width="200" height="200"><defs><style type="text/css"></style></defs><path d="M51.2 51.2m153.6 0l609.28 0q153.6 0 153.6 153.6l0 609.28q0 153.6-153.6 153.6l-609.28 0q-153.6 0-153.6-153.6l0-609.28q0-153.6 153.6-153.6Z" fill="#F19149" opacity=".2" p-id="11558"></path><path d="M819.45088 270.73024l-261.4016-122.9056a100.71552 100.71552 0 0 0-85.504-0.0768L209.71008 270.7456A26.624 26.624 0 0 0 194.56 294.95296v270.57664c0 135.168 178.10944 254.67904 268.88704 306.82112a100.864 100.864 0 0 0 102.7072-1.33632C656.256 816.18432 834.56 691.712 834.56 565.5296V294.912a26.624 26.624 0 0 0-15.10912-24.18176z m-122.30656 162.04288l-196.43904 195.4048a56.46336 56.46336 0 0 1-79.47264 0L331.97568 539.392a29.184 29.184 0 0 1 0-41.472 29.57312 29.57312 0 0 1 41.66656 0l87.32672 86.8608 194.51392-193.4592a29.57312 29.57312 0 0 1 41.66144 0 29.184 29.184 0 0 1 0 41.45152z" fill="#F19149" p-id="11559"></path></svg>