<?xml version="1.0" standalone="no"?><!DOCTYPE svg PUBLIC "-//W3C//DTD SVG 1.1//EN" "http://www.w3.org/Graphics/SVG/1.1/DTD/svg11.dtd"><svg t="1610441712676" class="icon" viewBox="0 0 1024 1024" version="1.1" xmlns="http://www.w3.org/2000/svg" p-id="7950" xmlns:xlink="http://www.w3.org/1999/xlink" width="200" height="200"><defs><style type="text/css"></style></defs><path d="M594.757818 107.985455c0-46.173091-37.050182-83.595636-82.757818-83.595637s-82.757818 37.422545-82.757818 83.595637" fill="#FFBA2D" p-id="7951"></path><path d="M850.385455 424.96c0-188.416-151.412364-341.364364-338.385455-341.364364-186.973091 0-338.385455 152.948364-338.385455 341.317819h97.512728c0-134.749091 107.985455-243.805091 240.872727-243.805091s240.872727 109.056 240.872727 243.805091h97.512728z" fill="#FFBA2D" p-id="7952"></path><path d="M814.173091 754.501818H209.826909l59.112727-59.671273V424.96h-93.090909v231.656727L121.250909 711.68c-18.059636 18.245818-28.16 42.821818-28.16 68.514909 0 37.236364 30.208 67.444364 67.444364 67.444364h702.929454c37.236364 0 67.444364-30.208 67.444364-67.490909 0-25.6-10.100364-50.222545-28.16-68.421819l-54.597818-55.156363V424.913455h-93.090909v269.963636l59.112727 59.671273z" fill="#FFBA2D" p-id="7953"></path><path d="M512 1024a139.636364 139.636364 0 0 0 139.636364-139.636364H372.363636a139.636364 139.636364 0 0 0 139.636364 139.636364z" fill="#FFBA2D" p-id="7954"></path><path d="M349.090909 663.272727h325.818182a34.909091 34.909091 0 1 0 0-69.818182h-325.818182a34.909091 34.909091 0 1 0 0 69.818182z" fill="#FFBA2D" p-id="7955"></path></svg>