<?xml version="1.0" standalone="no"?><!DOCTYPE svg PUBLIC "-//W3C//DTD SVG 1.1//EN" "http://www.w3.org/Graphics/SVG/1.1/DTD/svg11.dtd"><svg t="1610537593636" class="icon" viewBox="0 0 1024 1024" version="1.1" xmlns="http://www.w3.org/2000/svg" p-id="8700" xmlns:xlink="http://www.w3.org/1999/xlink" width="200" height="200"><defs><style type="text/css"></style></defs><path d="M646.5 920.6c-80.1 0-222.4-24.5-377.6-200.1-186.8-211.3-181.3-391-161.4-479.3 9.4-41.6 41.3-79.4 85.4-101.1 37.9-18.6 77.6-21.8 106.3-8.5 93.3 43.2 96 186.2 81.2 233.2-9.9 31.5-41.3 62.2-60.9 79 53.1 121.9 167.9 206.3 206.4 229.8 0.9-1 1.8-1.9 2.6-2.8 14.5-15.7 36.4-39.5 71.8-50 43.6-12.8 127.7 0.2 178.9 39.6 32.7 25.1 49.4 58.4 48.4 96.1-3.6 129.9-85.3 157-133.7 161.5-11.4 1.1-27.5 2.6-47.4 2.6z m-488.6-668c-14.2 63.3-28.2 232.3 149.8 433.7 176.4 199.6 325.1 185.5 381.1 180.3 56.8-5.4 85.2-41.8 87.1-111.4 0.6-21.1-8.7-38.7-28.2-53.7-41-31.5-109.2-38-132.7-31-21.7 6.4-36.5 22.5-48.4 35.4-11.8 12.8-27.9 30.2-49.9 21.5-20.5-8.2-189.3-114.1-252.6-282.5-4.1-10.8-0.5-23 8.8-29.9 18.9-14.1 51.4-44.3 58.1-65.7 10.3-32.8 7.8-142.4-53.6-170.8-14.3-6.6-38.5-3.4-61.7 8-30.2 14.9-51.8 39.6-57.8 66.1z" fill="#D6473B" p-id="8701"></path><path d="M718.9 560.6c-2.1 0-4.3-0.3-6.5-0.8-13.8-3.6-22.1-17.7-18.5-31.6 7.9-30.2 6.5-61.9-4-91.6-14-39.5-42.5-71.2-80.3-89.2-37.8-18.1-80.4-20.3-119.8-6.3-13.5 4.7-28.2-2.3-33-15.7-4.8-13.5 2.3-28.3 15.8-33 52.5-18.6 109.1-15.6 159.4 8.4 50.3 24 88.2 66.1 106.7 118.7 13.9 39.4 15.8 81.5 5.3 121.8-3.1 11.6-13.6 19.3-25.1 19.3z" fill="#D6473B" opacity=".5" p-id="8702"></path><path d="M891.4 520.4c-2.1 0-4.3-0.3-6.5-0.8-13.8-3.6-22.1-17.7-18.5-31.6 13.4-51.6 11.1-105.6-6.8-156.2-49.2-139-202.3-212.1-341.3-163-13.5 4.7-28.3-2.3-33-15.8-4.8-13.5 2.3-28.2 15.8-33C667 61.3 849.8 148.6 908.5 314.5c21.3 60.4 24.1 124.8 8.1 186.5-3.2 11.7-13.7 19.4-25.2 19.4z" fill="#D6473B" opacity=".5" p-id="8703"></path></svg>