<?xml version="1.0" standalone="no"?><!DOCTYPE svg PUBLIC "-//W3C//DTD SVG 1.1//EN" "http://www.w3.org/Graphics/SVG/1.1/DTD/svg11.dtd"><svg t="1610609196126" class="icon" viewBox="0 0 1024 1024" version="1.1" xmlns="http://www.w3.org/2000/svg" p-id="2636" xmlns:xlink="http://www.w3.org/1999/xlink" width="200" height="200"><defs><style type="text/css"></style></defs><path d="M834.2 489.7c-35.9-43.4-83.7-79.5-138.4-104.2-56.3-25.5-119.8-39-183.8-39s-127.6 13.5-183.8 39c-54.7 24.8-102.5 60.8-138.4 104.2-10.7 12.9-10.7 31.7 0 44.6 35.9 43.4 83.7 79.5 138.4 104.2 56.3 25.5 119.8 39 183.8 39s127.6-13.5 183.8-39c54.7-24.8 102.5-60.8 138.4-104.2 10.7-12.9 10.7-31.7 0-44.6z m-23.1 25.5C742.7 598 630.9 647.5 512 647.5S281.3 598 212.9 515.2c-1.5-1.9-1.5-4.5 0-6.4C281.3 426 393.1 376.5 512 376.5S742.7 426 811.1 508.8c1.5 1.9 1.5 4.5 0 6.4z" fill="#333333" p-id="2637"></path><path d="M512 512m-95 0a95 95 0 1 0 190 0 95 95 0 1 0-190 0Z" fill="#333333" p-id="2638"></path></svg>