<svg width="961" height="961" xmlns="http://www.w3.org/2000/svg" class="icon">
 <defs>
  <style type="text/css"/>
 </defs>
 <g>
  <title>background</title>
  <rect fill="none" id="canvas_background" height="963" width="963" y="-1" x="-1"/>
 </g>
 <g>
  <title>Layer 1</title>
  <path id="svg_1" fill="#ffffff" d="m513,960.8c-23.6,0 -47.5,-1.9 -71.1,-5.7c-11,-1.8 -19.7,-10.2 -21.7,-21.1c-6.3,-33.3 -35.5,-57.5 -69.5,-57.5c-16,0 -31.1,5.3 -43.7,15.2c-8.7,6.9 -20.8,7.5 -30.2,1.7c-51.5,-32 -95.3,-73.4 -130.2,-123.2c-7,-9.9 -6.3,-23.3 1.7,-32.5c11.2,-12.9 17.4,-29.4 17.4,-46.3c0,-37.8 -29.6,-68.8 -67.4,-70.5c-12.1,-0.6 -22.3,-9.3 -24.6,-21.2c-5.7,-28.7 -8.5,-57.8 -8.5,-86.7c0,-24.7 2.1,-50 6.4,-75.1c2.1,-12.4 12.7,-21.6 25.3,-21.9c38.6,-1 68.8,-32.1 68.8,-70.6c0,-18.8 -7.3,-36.5 -20.5,-49.8c-8.9,-8.9 -10.2,-22.9 -3.1,-33.3c33.7,-49.8 76.5,-91.8 127.2,-124.7c10.3,-6.7 23.8,-5.4 32.6,3.1c13.3,12.7 30.6,19.7 48.9,19.7c36.8,0 67.8,-28.8 70.5,-65.5c0.9,-12.2 10.1,-22.2 22.2,-24.1c53.8,-8.4 109.2,-6.9 162.5,4.3c11.1,2.3 19.4,11.5 20.7,22.8c4.1,35.7 34.3,62.6 70.2,62.6c15.1,0 29.6,-4.8 41.9,-13.8c9.1,-6.7 21.5,-6.9 30.8,-0.4c45.2,31.7 83.7,70.7 114.5,116.1c7.1,10.4 5.7,24.4 -3.1,33.3c-13.2,13.3 -20.5,31 -20.5,49.8c0,38.6 30.2,69.6 68.8,70.6c12.6,0.3 23.2,9.5 25.3,21.9c4.2,25.1 6.4,50.4 6.4,75.1c0,28.9 -2.8,58.1 -8.5,86.7c-2.3,11.9 -12.5,20.7 -24.6,21.2c-37.8,1.8 -67.4,32.8 -67.4,70.5c0,17 6.2,33.4 17.4,46.3c8,9.1 8.6,22.5 1.7,32.5c-30.1,42.8 -67.1,79.7 -109.9,109.7c-9.3,6.5 -21.6,6.3 -30.8,-0.4c-12.3,-9.1 -26.8,-13.8 -41.9,-13.8c-35.9,0 -66.1,26.9 -70.2,62.6c-1.3,11.3 -9.6,20.4 -20.7,22.8c-30.7,6.3 -62,9.6 -93.1,9.6zm-46.2,-55.4c37.3,4.4 74.7,3.4 111.4,-2.7c14.8,-52.3 62.8,-89.7 118.7,-89.7c19.8,0 38.9,4.7 56.2,13.6c27.1,-20.7 51.3,-44.8 72.2,-71.7c-11.5,-19.1 -17.6,-41 -17.6,-63.4c0,-58.6 40.8,-107.9 96.1,-120.3c2.9,-19.3 4.3,-38.8 4.3,-58.2c0,-15.5 -1,-31.2 -2.9,-47c-56.2,-11.8 -97.6,-61 -97.6,-120.7c0,-25.1 7.5,-49.2 21.4,-69.5c-21.7,-28.8 -47.1,-54.5 -75.9,-76.5c-17.3,9 -36.5,13.6 -56.2,13.6c-56,0 -103.9,-37.4 -118.7,-89.7c-35.6,-5.9 -72,-7 -108,-3.1c-13.8,53.5 -62.6,92.7 -119.5,92.7c-24.6,0 -48.2,-7.2 -68.3,-20.7c-32.7,23.5 -61.3,51.5 -85.4,83.6c13.9,20.3 21.4,44.3 21.4,69.5c0,59.6 -41.4,108.9 -97.6,120.7c-1.9,15.8 -2.9,31.5 -2.9,47c0,19.4 1.5,38.8 4.3,58.2c55.4,12.4 96.1,61.7 96.1,120.3c0,22.5 -6.2,44.4 -17.6,63.4c25.5,32.9 55.6,61.2 89.9,84.6c18.3,-10.3 38.8,-15.7 60.1,-15.7c52.6,0.1 98.7,33.5 116.1,81.7z"/>
  <path id="svg_2" fill="#ffffff" d="m513,706.8c-106.9,0 -193.8,-87 -193.8,-193.8s87,-193.8 193.8,-193.8s193.8,87 193.8,193.8s-86.9,193.8 -193.8,193.8zm0,-335c-77.8,0 -141.2,63.3 -141.2,141.2s63.4,141.1 141.2,141.1s141.2,-63.3 141.2,-141.1s-63.4,-141.2 -141.2,-141.2z"/>
 </g>
</svg>