<svg width="1024" height="1024" xmlns="http://www.w3.org/2000/svg" class="icon">
 <defs>
  <style type="text/css"/>
 </defs>
 <g>
  <title>background</title>
  <rect fill="none" id="canvas_background" height="402" width="582" y="-1" x="-1"/>
 </g>
 <g>
  <title>Layer 1</title>
  <path id="svg_1" fill="#ffffff" d="m725.333333,42.666667c-46.933333,0 -89.6,12.8 -128,34.133333c-38.4,-21.333333 -83.2,-34.133333 -128,-34.133333c-140.8,0 -256,115.2 -256,256c0,83.2 38.4,155.733333 100.266667,202.666666c-147.2,61.866667 -249.6,204.8 -249.6,373.333334l0,42.666666c0,23.466667 19.2,42.666667 42.666667,42.666667s42.666667,-19.2 42.666666,-42.666667l0,-42.666666c0,-177.066667 142.933333,-320 320,-320l8.533334,0c-96,74.666667 -157.866667,189.866667 -157.866667,320l0,42.666666c0,23.466667 19.2,42.666667 42.666667,42.666667s42.666667,-19.2 42.666666,-42.666667l0,-42.666666c0,-177.066667 142.933333,-320 320,-320c140.8,0 256,-115.2 256,-256s-115.2,-256 -256,-256zm-426.666666,256c0,-93.866667 76.8,-170.666667 170.666666,-170.666667c19.2,0 38.4,4.266667 57.6,10.666667c-36.266666,42.666666 -57.6,98.133333 -57.6,160c0,59.733333 21.333333,117.333333 57.6,160c-19.2,6.4 -38.4,10.666667 -57.6,10.666666c-93.866667,0 -170.666667,-76.8 -170.666666,-170.666666zm426.666666,170.666666c-93.866667,0 -170.666667,-76.8 -170.666666,-170.666666s76.8,-170.666667 170.666666,-170.666667s170.666667,76.8 170.666667,170.666667s-76.8,170.666667 -170.666667,170.666666z"/>
  <path id="svg_2" fill="#36D1EB" d="m746.666667,640l0,234.666667l85.333333,-106.666667l85.333333,106.666667l0,-234.666667l-170.666666,0z"/>
 </g>
</svg>