<svg width="1024" height="1024" xmlns="http://www.w3.org/2000/svg" class="icon">
 <defs>
  <style type="text/css"/>
 </defs>
 <g>
  <title>background</title>
  <rect fill="none" id="canvas_background" height="402" width="582" y="-1" x="-1"/>
 </g>
 <g>
  <title>Layer 1</title>
  <path id="svg_1" fill="#ffffff" d="m789.333333,426.133333l0,362.666667a106.666667,106.666667 0 0 1 -106.666666,106.666667l-341.333334,0a106.666667,106.666667 0 0 1 -106.666666,-106.666667l0,-362.666667l554.666666,0m64,-64l-682.666666,0l0,426.666667a170.666667,170.666667 0 0 0 170.666666,170.666667l341.333334,0a170.666667,170.666667 0 0 0 170.666666,-170.666667l0,-426.666667z"/>
  <path id="svg_2" fill="#ffffff" d="m592,580.8l-160,0a26.666667,26.666667 0 0 0 0,53.333333l160,0a26.666667,26.666667 0 1 0 0,-53.333333zm-80,-452.266667a105.973333,105.973333 0 0 1 64.533333,21.706667l1.12,0.906667l1.226667,0.8l304,210.186666l-741.76,0l304,-210.186666l1.173333,-0.8l1.173334,-0.906667a105.973333,105.973333 0 0 1 64.533333,-21.706667m0,-64a170.666667,170.666667 0 0 0 -103.306667,34.773334l-304,210.026666c-51.36,35.893333 -26.346667,116.8 36.426667,116.8l741.76,0c62.773333,0 88.053333,-80.96 36.426667,-116.64l-304,-210.186666a170.293333,170.293333 0 0 0 -103.306667,-34.773334z"/>
 </g>
</svg>