<svg width="1024" height="1024" xmlns="http://www.w3.org/2000/svg" class="icon">
 <defs>
  <style type="text/css"/>
 </defs>
 <g>
  <title>background</title>
  <rect fill="none" id="canvas_background" height="402" width="582" y="-1" x="-1"/>
 </g>
 <g>
  <title>Layer 1</title>
  <path id="svg_1" fill="#bf0000" d="m153.7,286l-120.7,0c-15,0 -27.2,-12.2 -27.2,-27.2l0,-120.8c0,-14.9 12.2,-27.2 27.2,-27.2l120.8,0c14.9,0 27.2,12.2 27.2,27.2l0,120.8c-0.1,15 -12.3,27.2 -27.3,27.2z"/>
  <path id="svg_2" fill="#bf0000" d="m990,271.8l-624.1,0c-14.9,0 -27.2,-12.2 -27.2,-27.2l0,-106.6c0,-14.9 12.2,-27.2 27.2,-27.2l624.1,0c14.9,0 27.2,12.2 27.2,27.2l0,106.6c0,15 -12.2,27.2 -27.2,27.2z"/>
  <path id="svg_3" fill="#bf0000" d="m153.7,597.8l-120.7,0c-14.9,0 -27.2,-12.2 -27.2,-27.2l0,-120.7c0,-14.9 12.2,-27.1 27.2,-27.1l120.8,0c14.9,0 27.2,12.2 27.2,27.2l0,120.8c-0.1,14.8 -12.3,27 -27.3,27z"/>
  <path id="svg_4" fill="#bf0000" d="m990,587.2l-624.1,0c-14.9,0 -27.2,-12.2 -27.2,-27.2l0,-106.5c0,-14.9 12.2,-27.2 27.2,-27.2l624.1,0c14.9,0 27.2,12.2 27.2,27.2l0,106.6c0,14.9 -12.2,27.1 -27.2,27.1z"/>
  <path id="svg_5" fill="#bf0000" d="m153.7,909.7l-120.7,0c-14.9,0 -27.2,-12.2 -27.2,-27.2l0,-120.7c0,-14.9 12.2,-27.2 27.2,-27.2l120.8,0c14.9,0 27.2,12.2 27.2,27.2l0,120.8c-0.1,14.9 -12.3,27.1 -27.3,27.1z"/>
  <path id="svg_6" fill="#bf0000" d="m990,902.6l-624.1,0c-14.9,0 -27.2,-12.2 -27.2,-27.2l0,-106.5c0,-14.9 12.2,-27.2 27.2,-27.2l624.1,0c14.9,0 27.2,12.2 27.2,27.2l0,106.6c0,14.9 -12.2,27.1 -27.2,27.1z"/>
 </g>
</svg>