<svg width="929" height="929" xmlns="http://www.w3.org/2000/svg" class="icon">
 <defs>
  <style type="text/css"/>
 </defs>
 <g>
  <title>background</title>
  <rect fill="none" id="canvas_background" height="931" width="931" y="-1" x="-1"/>
 </g>
 <g>
  <title>Layer 1</title>
  <path id="svg_1" fill="#ffffff" d="m715.42,928.66l-402.39,0c-117.58,0 -213.25,-95.66 -213.25,-213.24l0,-402.39c0,-117.58 95.66,-213.25 213.25,-213.25l402.38,0c117.58,0 213.24,95.66 213.24,213.25l0,402.38c0.01,117.59 -95.65,213.25 -213.23,213.25zm-402.39,-768.87c-84.5,0 -153.25,68.75 -153.25,153.25l0,402.38c0,84.5 68.75,153.24 153.25,153.24l402.38,0c84.5,0 153.24,-68.75 153.24,-153.24l0,-402.39c0,-84.5 -68.75,-153.25 -153.24,-153.25l-402.38,0l0,0.01z"/>
  <path id="svg_2" fill="#ffffff" d="m514.22,545.55c-58.72,0 -113.92,-22.87 -155.43,-64.38c-41.52,-41.52 -64.38,-96.72 -64.38,-155.44c0,-16.57 13.43,-30 30,-30s30,13.43 30,30c0,88.12 71.69,159.82 159.82,159.82s159.82,-71.69 159.82,-159.82c0,-16.57 13.43,-30 30,-30s30,13.43 30,30c0,58.72 -22.87,113.92 -64.38,155.44c-41.53,41.52 -96.73,64.38 -155.45,64.38z"/>
 </g>
</svg>