<?xml version="1.0" standalone="no"?><!DOCTYPE svg PUBLIC "-//W3C//DTD SVG 1.1//EN" "http://www.w3.org/Graphics/SVG/1.1/DTD/svg11.dtd"><svg t="1610681028523" class="icon" viewBox="0 0 1024 1024" version="1.1" xmlns="http://www.w3.org/2000/svg" p-id="2684" xmlns:xlink="http://www.w3.org/1999/xlink" width="200" height="200"><defs><style type="text/css"></style></defs><path d="M714.42 927.66H312.03c-117.58 0-213.25-95.66-213.25-213.24V312.03c0-117.58 95.66-213.25 213.25-213.25h402.38c117.58 0 213.24 95.66 213.24 213.25v402.38C927.66 832 832 927.66 714.42 927.66zM312.03 158.79c-84.5 0-153.25 68.75-153.25 153.25v402.38c0 84.5 68.75 153.24 153.25 153.24h402.38c84.5 0 153.24-68.75 153.24-153.24V312.03c0-84.5-68.75-153.25-153.24-153.25H312.03z" fill="#515151" p-id="2685"></path><path d="M513.22 544.55c-58.72 0-113.92-22.87-155.43-64.38-41.52-41.52-64.38-96.72-64.38-155.44 0-16.57 13.43-30 30-30s30 13.43 30 30c0 88.12 71.69 159.82 159.82 159.82s159.82-71.69 159.82-159.82c0-16.57 13.43-30 30-30s30 13.43 30 30c0 58.72-22.87 113.92-64.38 155.44-41.53 41.52-96.73 64.38-155.45 64.38z" fill="#515151" p-id="2686"></path></svg>