<svg width="1024" height="1024" xmlns="http://www.w3.org/2000/svg" class="icon">
 <defs>
  <style type="text/css"/>
 </defs>
 <g>
  <title>background</title>
  <rect fill="none" id="canvas_background" height="402" width="582" y="-1" x="-1"/>
 </g>
 <g>
  <title>Layer 1</title>
  <path id="svg_1" fill="#ffffff" d="m846.72,629.12l-133.76,0a145.92,145.92 0 0 1 -21.12,-18.56a81.92,81.92 0 0 1 -28.8,-60.8l0,-6.4a112.64,112.64 0 0 1 15.36,-31.36l13.44,-20.48c9.6,-14.72 20.48,-29.44 31.36,-43.52a259.84,259.84 0 0 0 60.8,-166.4a269.44,269.44 0 0 0 -261.12,-269.44l-19.84,0a270.72,270.72 0 0 0 -263.04,266.24a264.96,264.96 0 0 0 60.8,169.6c10.24,13.44 20.48,27.52 30.08,42.24a182.4,182.4 0 0 1 27.52,52.48l0,6.4a83.2,83.2 0 0 1 -26.88,60.16a147.84,147.84 0 0 1 -21.12,17.92l-132.48,0c-88.96,0 -128,34.56 -128,112.64l0,174.08a91.52,91.52 0 0 0 92.16,92.16l741.76,0a92.16,92.16 0 0 0 91.52,-92.16l0,-172.8c0,-78.08 -39.04,-112.64 -128,-112.64l-0.64,0.64zm-728.96,286.08l0,-172.8c0,-21.12 0,-31.36 10.24,-37.12a89.6,89.6 0 0 1 50.56,-8.32l153.6,0l8.32,-5.12a296.32,296.32 0 0 0 44.16,-33.28a150.4,150.4 0 0 0 44.8,-113.28a167.04,167.04 0 0 0 -38.4,-93.44c-11.52,-17.28 -24.32,-34.56 -37.12,-51.2a192,192 0 0 1 -44.8,-122.88a201.6,201.6 0 0 1 195.84,-197.76l16.64,0a200.32,200.32 0 0 1 192,197.76a192,192 0 0 1 -44.8,122.88a546.56,546.56 0 0 0 -33.28,47.36l-15.36,24.32a134.4,134.4 0 0 0 -24.32,70.4a148.48,148.48 0 0 0 44.8,115.2a239.36,239.36 0 0 0 42.24,33.92l8.32,5.12l154.24,0c54.4,0 59.52,8.32 59.52,44.8l0,172.8a24.32,24.32 0 0 1 -23.68,23.68l-743.04,0a23.04,23.04 0 0 1 -16.64,-7.04a24.96,24.96 0 0 1 -7.04,-17.28l3.2,1.28zm0,0"/>
  <path id="svg_2" fill="#ffffff" d="m337.28,789.12l350.72,0l0,66.56l-350.72,0l0,-66.56z"/>
 </g>
</svg>