<?xml version="1.0" standalone="no"?><!DOCTYPE svg PUBLIC "-//W3C//DTD SVG 1.1//EN" "http://www.w3.org/Graphics/SVG/1.1/DTD/svg11.dtd"><svg t="1610698839325" class="icon" viewBox="0 0 1024 1024" version="1.1" xmlns="http://www.w3.org/2000/svg" p-id="10005" xmlns:xlink="http://www.w3.org/1999/xlink" width="200" height="200"><defs><style type="text/css"></style></defs><path d="M518.81 890.683c-110.444 0-214.277-43.009-292.372-121.104S105.333 587.65 105.333 477.207s43.009-214.277 121.104-292.372S408.366 63.73 518.81 63.73s214.276 43.009 292.371 121.104c78.096 78.096 121.105 181.929 121.105 292.372s-43.009 214.276-121.105 292.372c-78.095 78.096-181.928 121.105-292.371 121.105z m0-765.697c-194.215 0-352.221 158.006-352.221 352.221s158.006 352.22 352.221 352.22 352.22-158.005 352.22-352.22-158.005-352.221-352.22-352.221z" fill="#E75934" p-id="10006"></path><path d="M917.673 856.057c23.922 23.922 23.922 62.707 0 86.629-23.922 23.922-62.707 23.922-86.629 0l-98.54-98.54c-23.922-23.922-23.922-62.707 0-86.629 23.922-23.922 62.707-23.922 86.629 0l98.54 98.54z" fill="#E75934" p-id="10007"></path></svg>