<svg width="1024" height="1024" xmlns="http://www.w3.org/2000/svg" class="icon">
 <defs>
  <style type="text/css"/>
 </defs>
 <g>
  <title>background</title>
  <rect fill="none" id="canvas_background" height="402" width="582" y="-1" x="-1"/>
 </g>
 <g>
  <title>Layer 1</title>
  <path id="svg_1" fill="#ffffff" d="m512,157.27104c104.35072,0 201.79968,31.89248 274.39616,89.8048c67.89632,54.16448 105.2928,124.75392 105.2928,198.75328s-37.39136,144.5888 -105.2928,198.75328c-72.59648,57.91232 -170.04544,89.8048 -274.39616,89.8048c-49.34656,0 -98.85696,36.84352 -156.18048,79.50848c-9.53856,7.09632 -21.55008,16.04096 -33.5616,24.59136l0.04096,-8.35072c0.384,-63.60576 0.77824,-129.37216 -50.2016,-161.19808c-88.832,-55.45472 -139.78112,-136.77568 -139.78112,-223.10912c0,-74.00448 37.39136,-144.5888 105.2928,-198.75328c72.59136,-57.9072 170.04032,-89.8048 274.39104,-89.8048m0,-70.87104c-248.83712,0 -450.56,160.92672 -450.56,359.43424c0,115.03104 67.7376,217.44128 173.12768,283.23328c36.55168,22.81472 -4.85376,194.55488 39.5008,207.55968c2.25792,0.66048 4.69504,0.97792 7.31136,0.97792c53.52448,0 178.53952,-132.33152 230.62528,-132.33152c248.83712,0 450.56,-160.92672 450.56,-359.43424c-0.00512,-198.51776 -201.728,-359.43936 -450.56512,-359.43936z"/>
  <path id="svg_2" fill="#ffffff" d="m660.48,414.09024l-296.96,0a35.84,35.84 0 1 1 0,-71.68l296.96,0a35.84,35.84 0 1 1 0,71.68zm-46.08,163.84l-204.8,0a35.84,35.84 0 1 1 0,-71.68l204.8,0a35.84,35.84 0 1 1 0,71.68z"/>
 </g>
</svg>