<svg width="1024" height="1024" xmlns="http://www.w3.org/2000/svg" class="icon">
 <defs>
  <style type="text/css"/>
 </defs>
 <g>
  <title>background</title>
  <rect fill="none" id="canvas_background" height="402" width="582" y="-1" x="-1"/>
 </g>
 <g>
  <title>Layer 1</title>
  <path id="svg_1" fill="#231815" d="m514.512,582.128c-142.848,0 -259.064,-116.216 -259.064,-259.064s116.216,-259.064 259.064,-259.064s259.064,116.216 259.064,259.064c0,142.84 -116.216,259.064 -259.064,259.064zm0,-466.928c-114.616,0 -207.864,93.248 -207.864,207.856c0,114.616 93.248,207.848 207.864,207.848s207.864,-93.224 207.864,-207.84s-93.232,-207.864 -207.864,-207.864zm-198.424,437.24a11.704,11.704 0 0 0 -0.592,0.36a305.192,305.192 0 0 0 46.456,33.232l0.72,-0.368a304.92,304.92 0 0 1 -46.584,-33.224zm548.696,-404.016c0.232,0.12 0.488,0.24 0.72,0.368a307.264,307.264 0 0 0 46.456,-33.232a11.52,11.52 0 0 0 -0.584,-0.36a305.784,305.784 0 0 1 -46.592,33.224z"/>
  <path id="svg_2" fill="#ffffff" d="m754.984,580a403.256,403.256 0 0 0 -41.456,-27.2a304.864,304.864 0 0 1 -46.464,33.232a350.304,350.304 0 0 1 46.64,27.232c91.824,63.44 152.12,170.16 152.12,289.952c0,2.672 -0.152,0.784 -0.2,8.784l-702.216,0c-0.056,-8 -0.2,-6.112 -0.2,-8.784c0,-119.8 60.304,-226.128 152.112,-289.56c14.776,-10.2 30.344,-19.544 46.64,-27.44a305.616,305.616 0 0 1 -46.456,-33.328a399.832,399.832 0 0 0 -41.456,27.16c-98.272,73.456 -162.048,190.568 -162.048,322.424c0,2.672 0.152,6.096 0.2,8.768a421.68,421.68 0 0 0 3.776,48.776l797.064,0c2.192,-16 3.464,-32.52 3.792,-48.792c0.048,-2.672 0.192,-5.704 0.192,-8.392c0.008,-131.848 -63.776,-249.376 -162.04,-322.832z"/>
  <path id="svg_3" fill="#ffffff" d="m514.512,582.128c142.848,0 259.064,-116.224 259.064,-259.064c0,-142.848 -116.216,-259.064 -259.064,-259.064s-259.064,116.216 -259.064,259.064s116.216,259.064 259.064,259.064zm0,-466.928c114.632,0 207.864,93.248 207.864,207.864s-93.248,207.84 -207.864,207.84s-207.864,-93.232 -207.864,-207.848c0,-114.608 93.248,-207.856 207.864,-207.856z"/>
 </g>
</svg>