<svg width="1024" height="1024" xmlns="http://www.w3.org/2000/svg" class="icon">
 <defs>
  <style type="text/css"/>
 </defs>
 <g>
  <title>background</title>
  <rect fill="none" id="canvas_background" height="402" width="582" y="-1" x="-1"/>
 </g>
 <g>
  <title>Layer 1</title>
  <path id="svg_1" fill="#ffffff" d="m759.783298,119.019145l-109.738493,0l0,-8.003259a111.146232,111.146232 0 0 0 -111.015886,-111.015886l-54.067617,0a111.146232,111.146232 0 0 0 -111.015886,111.015886l0,8.003259l-109.738493,0a136.48554,136.48554 0 0 0 -136.342159,136.342158l0,632.296538a136.48554,136.48554 0 0 0 136.342159,136.342159l495.576375,0a136.48554,136.48554 0 0 0 136.342159,-136.342159l0,-632.296538a136.48554,136.48554 0 0 0 -136.342159,-136.342158zm-328.472505,-8.003259a53.728717,53.728717 0 0 1 53.650509,-53.663544l54.054582,0a53.728717,53.728717 0 0 1 53.663544,53.663544l0,8.003259l-161.38167,0l0.013035,-8.003259zm407.475356,768.638696a79.068024,79.068024 0 0 1 -78.989816,78.989817l-495.58941,0a79.068024,79.068024 0 0 1 -78.989817,-70.986558l0,-632.296538a79.068024,79.068024 0 0 1 78.989817,-78.989816l495.576375,0a79.068024,79.068024 0 0 1 78.989816,78.989816l0.013035,624.293279z"/>
  <path id="svg_2" fill="#ffffff" d="m730.729123,365.099796l-437.45499,0a28.676171,28.676171 0 0 0 0,57.352342l437.45499,0a28.676171,28.676171 0 0 0 0,-57.352342zm-82.026884,218.734013l-273.414257,0a28.676171,28.676171 0 0 0 0,57.352342l273.414257,0a28.676171,28.676171 0 0 0 0,-57.352342z"/>
 </g>
</svg>